<?xml version="1.0"?>
<svg width="32" height="32" xmlns="http://www.w3.org/2000/svg" xmlns:svg="http://www.w3.org/2000/svg" xmlns:xlink="http://www.w3.org/1999/xlink">
 <defs>
  <clipPath id="A">
   <use id="svg_1" xlink:href="#B"/>
  </clipPath>
  <path d="m31.5,15.98l289,0l0,130.04l-289,0l0,-130.04z" id="B"/>
 </defs>
 <g class="layer">
  <title>Layer 1</title>
  <path clip-path="url(#A)" d="m105.75,102.97c-0.06,0.24 -0.3,0.36 -0.71,0.36l-7.94,0c-0.48,0 -0.89,-0.21 -1.25,-0.63l-13.1,-16.67l-3.66,3.48l0,12.93c0,0.59 -0.3,0.89 -0.89,0.89l-6.15,0c-0.6,0 -0.89,-0.3 -0.89,-0.89l0,-58.94c0,-0.59 0.29,-0.89 0.89,-0.89l6.15,0c0.59,0 0.89,0.3 0.89,0.89l0,36.29l15.69,-15.87c0.42,-0.42 0.84,-0.63 1.25,-0.63l8.21,0c0.35,0 0.59,0.15 0.71,0.45c0.12,0.36 0.09,0.62 -0.09,0.8l-16.59,16.05l17.3,21.49c0.24,0.23 0.3,0.53 0.18,0.89" fill="#000000" id="svg_2" transform="matrix(.527027 0 0 .527027 -30.632288 -22.45559)"/>
 </g>
</svg>